<?xml version="1.0" encoding="UTF-8" standalone="yes"?>
<svg version="1.0" xmlns="http://www.w3.org/2000/svg" width="654.000000pt" height="654.000000pt" viewBox="0 0 818.000000 818.000000" preserveAspectRatio="xMidYMid meet">
  <metadata>
Created by potrace 1.10, written by Peter Selinger 2001-2011
</metadata>
  <g transform="translate(0.000000,818.000000) scale(0.100000,-0.100000)" fill="#000000" stroke="none">
    <path d="M2720 7356 c-52 -18 -120 -43 -150 -55 -266 -107 -568 -350 -810
-651 -99 -124 -193 -218 -235 -236 -42 -17 -128 -110 -158 -170 -53 -104 -58
-207 -16 -332 l21 -64 -21 -92 c-12 -50 -35 -206 -52 -346 -29 -250 -30 -264
-29 -714 0 -477 6 -561 43 -651 11 -27 26 -77 32 -110 33 -158 104 -385 170
-540 60 -142 264 -559 312 -638 62 -103 294 -355 439 -477 78 -66 365 -235
498 -294 80 -36 87 -57 47 -140 -17 -36 -34 -80 -37 -98 -4 -18 -24 -64 -44
-103 -23 -42 -44 -101 -54 -148 -19 -95 -40 -137 -67 -137 -27 0 -48 12 -138
79 -118 87 -186 114 -304 119 -116 5 -149 -5 -173 -55 -24 -52 -13 -120 36
-216 85 -167 177 -276 348 -412 140 -113 232 -159 327 -163 l72 -4 68 63 c73
69 107 130 175 314 18 50 52 129 76 177 74 148 111 248 139 377 31 142 41 168
66 176 11 4 76 -1 146 -9 392 -47 584 -46 782 4 124 31 124 31 150 12 41 -30
52 -60 48 -129 -3 -66 -28 -115 -61 -121 -9 -2 -56 12 -104 32 -202 81 -359
72 -416 -25 -24 -40 -20 -60 24 -145 98 -190 244 -341 447 -462 219 -132 335
-185 413 -190 53 -3 73 1 109 20 93 48 103 95 106 488 2 197 7 302 19 370 8
52 16 113 16 135 0 22 4 45 8 52 14 22 63 33 147 33 319 0 588 109 883 357
127 106 358 395 429 538 13 24 23 72 28 122 6 71 10 84 35 108 21 20 34 25 47
20 10 -5 47 -11 83 -14 64 -6 65 -7 88 -47 40 -75 94 -68 137 17 29 55 47 66
139 79 67 10 96 31 96 72 0 15 14 54 31 86 29 54 31 61 27 153 -3 88 -6 100
-33 138 -82 114 -95 134 -95 143 0 7 23 8 65 3 103 -11 158 18 141 73 -9 27
-55 49 -128 62 -36 6 -80 20 -97 31 l-32 19 20 28 c11 16 23 40 26 55 8 29 3
33 -144 125 -64 40 -84 47 -135 50 -54 3 -71 -2 -145 -37 -46 -22 -90 -37 -97
-34 -26 10 -14 46 31 94 54 58 86 125 148 314 108 328 123 392 114 498 -6 80
-43 196 -83 264 -49 84 -150 180 -232 221 -70 34 -83 37 -162 37 -99 -1 -192
-25 -224 -60 -34 -36 -93 -163 -130 -277 -19 -58 -69 -178 -111 -269 -42 -90
-81 -183 -86 -206 -15 -74 -106 -238 -167 -298 -43 -43 -63 -46 -139 -23 -141
42 -523 31 -728 -22 -44 -11 -136 -47 -203 -80 -93 -45 -128 -57 -141 -50 -28
15 -48 74 -95 280 -54 236 -71 329 -88 480 -16 152 -17 686 -1 805 7 50 14
213 15 365 2 228 -1 287 -15 348 -61 263 -188 501 -362 678 -105 107 -176 156
-271 189 -131 45 -387 75 -633 75 -116 -1 -133 -3 -221 -34z m386 -146 c33 -5
124 -14 201 -18 127 -8 147 -12 207 -40 92 -43 208 -125 263 -186 58 -64 158
-214 190 -285 13 -29 41 -114 62 -188 l38 -135 -19 -106 c-16 -88 -18 -135
-13 -267 5 -117 3 -192 -9 -280 -12 -94 -14 -193 -11 -450 5 -424 13 -491 86
-815 22 -96 49 -237 59 -313 11 -76 27 -163 36 -195 8 -31 21 -80 28 -108 23
-88 51 -124 95 -124 42 0 55 21 47 80 -11 80 7 127 72 190 90 88 255 163 424
195 121 22 341 35 422 25 78 -10 149 -50 154 -88 4 -27 -51 -108 -90 -132 -45
-27 -198 -54 -271 -47 -36 4 -97 21 -147 41 -175 73 -233 33 -124 -85 31 -34
54 -67 52 -77 -2 -9 -34 -38 -72 -63 -38 -26 -94 -72 -124 -102 -46 -47 -54
-59 -48 -81 3 -14 17 -33 30 -41 32 -21 59 -9 143 60 94 78 201 127 361 165
194 46 278 39 606 -46 182 -48 294 -104 387 -192 138 -131 185 -253 177 -461
-4 -111 -6 -120 -45 -201 -70 -147 -203 -312 -351 -437 -262 -220 -439 -305
-668 -321 -128 -9 -165 -8 -291 10 -62 8 -92 8 -120 0 -61 -18 -68 -38 -63
-187 2 -71 3 -146 3 -165 -1 -19 -4 -161 -7 -315 -2 -154 -9 -307 -15 -339
-22 -123 -87 -138 -228 -51 -198 122 -425 319 -443 383 -13 49 -13 58 6 77 21
21 43 13 133 -47 97 -66 236 -132 277 -132 24 0 43 9 65 30 l31 29 -4 285 c-5
400 -4 398 -219 356 -358 -70 -515 -82 -629 -50 -30 8 -100 19 -156 24 -55 6
-143 21 -195 35 -52 14 -180 47 -285 74 -211 55 -300 87 -481 172 -130 61
-159 81 -329 228 -212 184 -305 306 -443 579 -140 279 -199 419 -274 647 -91
279 -117 387 -136 575 -8 80 -9 136 -2 185 6 39 8 209 6 387 -4 293 -2 319 14
339 18 22 22 22 413 29 218 4 400 10 406 14 6 4 87 11 179 16 308 18 464 29
473 35 5 3 63 12 129 20 66 8 157 24 203 35 46 10 134 26 196 35 161 22 222
51 222 106 0 31 -59 89 -91 89 -11 0 -73 -13 -137 -29 -145 -36 -206 -46 -401
-66 -85 -9 -186 -23 -224 -31 -37 -7 -101 -14 -140 -14 -40 0 -135 -7 -212
-16 -78 -9 -286 -20 -470 -24 -257 -6 -344 -11 -394 -24 l-65 -17 -28 28 -28
28 20 125 c37 242 38 243 252 241 84 -1 168 3 186 8 l33 10 -8 -47 c-19 -110
4 -169 85 -226 69 -47 105 -55 262 -56 141 0 147 1 185 26 70 47 135 116 135
144 0 30 -44 103 -84 139 -20 19 -41 26 -86 29 -106 8 -139 -39 -80 -113 33
-41 36 -50 19 -60 -18 -12 -175 -8 -213 5 -66 22 -85 84 -45 150 28 45 124
139 219 215 145 114 160 136 123 177 -21 24 -28 23 -113 -12 -40 -16 -76 -30
-81 -30 -5 0 -13 19 -20 43 -18 70 -80 178 -134 232 -30 30 -77 63 -117 82
-76 36 -90 60 -67 115 16 39 198 221 308 308 110 87 284 192 380 229 138 53
311 73 447 51z m-1034 -913 c111 -85 119 -182 22 -267 -52 -45 -190 -109 -249
-116 -53 -5 -136 13 -142 32 -2 6 24 21 58 34 112 40 214 176 224 296 2 27 4
50 4 52 4 12 47 -4 83 -31z m4345 -1022 c63 -32 144 -109 173 -164 12 -24 30
-77 41 -119 17 -69 18 -80 5 -122 -8 -25 -24 -97 -36 -160 -26 -139 -92 -339
-133 -398 -16 -24 -94 -110 -173 -192 -111 -115 -144 -154 -144 -175 0 -41 53
-82 142 -110 l77 -24 108 51 c98 47 115 52 180 52 83 1 99 -8 83 -48 -5 -15
-10 -63 -10 -107 0 -66 -3 -79 -16 -79 -9 0 -56 21 -104 47 -83 44 -89 46
-120 33 -72 -30 -79 -71 -22 -130 49 -51 152 -94 272 -115 174 -29 226 -57
236 -126 7 -51 -7 -63 -78 -69 l-63 -5 -3 -52 -3 -52 -32 4 c-18 2 -68 7 -112
9 -52 4 -105 15 -154 33 l-73 28 -72 117 c-39 65 -88 138 -110 163 -54 66
-157 148 -235 188 -78 41 -283 113 -367 128 -66 12 -104 40 -104 77 0 26 90
163 167 254 52 61 217 345 229 393 4 17 33 82 65 146 31 64 65 142 75 175 32
113 106 299 127 323 26 28 72 50 108 51 14 0 48 -11 76 -25z m-3345 -3392 c26
-23 23 -73 -11 -156 -15 -40 -33 -96 -40 -125 -6 -29 -40 -131 -76 -227 -36
-96 -65 -181 -65 -189 0 -25 -78 -170 -115 -214 -39 -45 -81 -72 -113 -72 -21
0 -34 9 -180 122 -144 111 -272 261 -272 319 0 14 9 35 21 47 l20 23 39 -22
c21 -12 97 -75 169 -140 142 -128 157 -139 196 -139 60 0 109 44 129 116 8 27
33 108 55 179 23 72 53 171 67 220 27 96 80 203 122 248 30 32 30 32 54 10z"/>
    <path d="M3215 6444 c-156 -34 -221 -68 -327 -176 -147 -150 -177 -242 -118
-364 35 -72 169 -207 233 -234 81 -36 113 -40 231 -29 208 18 318 54 423 137
103 82 152 194 138 320 -8 74 -16 95 -63 172 -48 78 -79 108 -146 142 -56 29
-180 59 -234 57 -15 0 -76 -11 -137 -25z m349 -165 c54 -47 116 -146 116 -184
0 -49 -55 -149 -107 -195 -77 -67 -384 -157 -466 -136 -31 7 -139 104 -131
117 3 5 49 9 102 9 165 0 162 -1 257 112 63 76 94 123 130 203 27 58 52 105
56 105 5 0 24 -14 43 -31z"/>
    <path d="M3592 4680 c-13 -6 -30 -26 -38 -47 -14 -32 -14 -56 -4 -189 7 -84
10 -188 8 -231 -4 -60 -1 -90 13 -131 14 -42 17 -63 10 -96 -5 -22 -12 -140
-16 -261 -7 -239 2 -342 33 -384 24 -33 137 -94 226 -122 69 -22 136 -69 136
-94 0 -7 -14 -25 -31 -39 -37 -32 -47 -30 -144 27 -49 28 -85 41 -122 45 -47
4 -52 2 -69 -23 -17 -26 -17 -28 5 -78 12 -29 24 -56 27 -62 2 -5 -5 -21 -15
-34 -30 -39 -65 -23 -100 48 -17 32 -36 61 -44 64 -28 11 -62 -18 -83 -72 -28
-70 -47 -91 -82 -91 -29 0 -54 20 -66 53 -11 32 28 98 117 199 47 53 91 106
96 117 15 28 14 178 -4 368 -18 198 -19 267 -6 453 13 173 13 378 2 438 -9 48
-69 119 -108 128 -59 15 -82 -27 -62 -112 19 -81 27 -593 13 -804 -5 -78 -2
-132 10 -207 25 -158 18 -186 -94 -343 -112 -158 -130 -204 -111 -276 24 -88
114 -184 174 -184 15 0 60 10 101 22 l73 21 55 -31 c122 -70 240 -25 262 99
11 60 32 71 153 81 191 15 211 19 245 41 78 53 67 105 -49 216 -90 85 -128
111 -202 135 -72 23 -140 71 -156 110 -10 25 -11 57 -4 151 6 77 6 280 0 568
-10 437 -11 448 -32 478 -17 25 -76 62 -91 58 -2 0 -13 -4 -26 -9z"/>
  </g>
</svg>